# xmcd
#
# Track frame offsets: 
#        150
#        15848
#        29963
#        47060
#        61848
#        79085
#        92884
#        107428
#        120605
#        132828
#
# Disc length: 1978 seconds
#
# Revision: 0
# Processed by: cddbd v1.5.2PL0 Copyright (c) Steve Scherf et al.
# Submitted via: ExactAudioCopy v0.95b3
#
DISCID=7907b80a
DTITLE=Guy Clark - The South Coast of Texas
DYEAR=1981
DGENRE=Country
TTITLE0=Who Do You Think You Are
TTITLE1=Crystelle
TTITLE2=New Cut Road
TTITLE3=Rita Ballou
TTITLE4=South Coast of Texas
TTITLE5=Heartbroke
TTITLE6=The Partner Nobody Chose
TTITLE7=She's Crazy For Leavin'
TTITLE8=Calf-Rope
TTITLE9=Lone Star Hotel
EXTD=
EXTT0=
EXTT1=
EXTT2=
EXTT3=
EXTT4=
EXTT5=
EXTT6=
EXTT7=
EXTT8=
EXTT9=
PLAYORDER=
